<svg width="18" height="18" viewBox="0 0 18 18" fill="none" xmlns="http://www.w3.org/2000/svg">
<path d="M10.2739 5.96021C9.79691 6.30028 9.21316 6.50033 8.58268 6.50033C6.97185 6.50033 5.66602 5.19449 5.66602 3.58366C5.66602 1.97283 6.97185 0.666992 8.58268 0.666992C9.62684 0.666992 10.5428 1.21567 11.0581 2.04044M3.99935 15.7396H6.17459C6.45821 15.7396 6.74009 15.7734 7.01503 15.8409L9.31343 16.3994C9.81214 16.5209 10.3317 16.5327 10.8356 16.4348L13.3768 15.9404C14.0481 15.8096 14.6657 15.4882 15.1496 15.0174L16.9476 13.2684C17.461 12.7698 17.461 11.9607 16.9476 11.4612C16.4853 11.0115 15.7533 10.9609 15.2303 11.3423L13.1348 12.871C12.8348 13.0904 12.4696 13.2085 12.0941 13.2085H10.0706L11.3586 13.2085C12.0845 13.2085 12.6726 12.6364 12.6726 11.9303V11.6746C12.6726 11.0882 12.2623 10.577 11.6777 10.4352L9.68984 9.95178C9.36633 9.87331 9.03502 9.83366 8.70197 9.83366C7.89796 9.83366 6.44259 10.4993 6.44259 10.4993L3.99935 11.5211M15.666 4.41699C15.666 6.02782 14.3602 7.33366 12.7493 7.33366C11.1385 7.33366 9.83268 6.02782 9.83268 4.41699C9.83268 2.80616 11.1385 1.50033 12.7493 1.50033C14.3602 1.50033 15.666 2.80616 15.666 4.41699ZM0.666016 11.167L0.666016 16.0003C0.666016 16.467 0.666016 16.7004 0.756843 16.8787C0.836738 17.0355 0.964222 17.1629 1.12102 17.2428C1.29928 17.3337 1.53264 17.3337 1.99935 17.3337H2.66602C3.13273 17.3337 3.36608 17.3337 3.54434 17.2428C3.70114 17.1629 3.82863 17.0355 3.90852 16.8787C3.99935 16.7004 3.99935 16.467 3.99935 16.0003V11.167C3.99935 10.7003 3.99935 10.4669 3.90852 10.2887C3.82863 10.1319 3.70114 10.0044 3.54434 9.92449C3.36608 9.83366 3.13273 9.83366 2.66602 9.83366L1.99935 9.83366C1.53264 9.83366 1.29928 9.83366 1.12102 9.92449C0.964222 10.0044 0.836738 10.1319 0.756844 10.2887C0.666016 10.4669 0.666016 10.7003 0.666016 11.167Z" stroke="#B3B3B3" stroke-width="1.2" stroke-linecap="round" stroke-linejoin="round"/>
</svg>
