<svg width="1920" height="655" viewBox="0 0 1920 655" fill="none" xmlns="http://www.w3.org/2000/svg">
<path d="M425.993 114.202L485.827 202.306H350.01L273.244 114.202H425.993Z" fill="url(#paint0_linear_2760_2283)"/>
<path d="M1389.75 272.827L1436.75 202.306H1572.63L1512.08 272.827H1389.75Z" fill="url(#paint1_linear_2760_2283)"/>
<path d="M684.094 330.538L707.536 378.662H605.606L572.927 330.538H684.094Z" fill="url(#paint2_linear_2760_2283)"/>
<path d="M1396.37 0.999817H523.651M1396.37 0.999817H1920M1396.37 0.999817L1342.69 114.202L1300.91 202.306L1267.47 272.827L1240.09 330.538L1217.27 378.662L1197.97 419.382L1181.42 454.292L1167.06 484.572L1154.49 511.077L1143.39 534.473L1133.53 555.241L1124.72 573.825L1116.78 590.556L1109.6 605.697L1103.06 619.468L1097.09 632.055L1091.63 643.567L1086.6 654.192H841.72L836.553 643.567L830.938 632.055L824.81 619.468L818.099 605.697L810.718 590.556L802.576 573.825L793.517 555.241L783.407 534.473L772.022 511.077L759.116 484.572L744.375 454.292L727.376 419.382L707.536 378.662M707.536 378.662L684.094 330.538M707.536 378.662H605.606M684.094 330.538L655.978 272.827L621.643 202.306L578.742 114.202L523.628 0.999817H0M684.094 330.538H572.927M1919.98 0.999817L1801.03 114.202H1495.46L1436.75 202.306M1436.75 202.306L1389.75 272.827M1436.75 202.306H1572.63M1389.75 272.827L1351.28 330.538L1319.2 378.662L1292.07 419.382L1268.81 454.292L1248.63 484.572L1230.99 511.077L1215.39 534.473L1201.55 555.241L1189.16 573.825L1178 590.556H749.52L738.157 573.825L725.519 555.241L711.405 534.473L695.524 511.077L677.541 484.572L656.985 454.292L633.275 419.382L605.606 378.662M1389.75 272.827H1512.08M605.606 378.662L572.927 330.538M572.927 330.538L533.716 272.827L485.827 202.306M485.827 202.306L425.993 114.202M485.827 202.306H350.01M425.993 114.202H120.428L0.0223896 0.999817M425.993 114.202H273.244M1634.34 272.827H289.148M1745.47 0.999817L1648.28 114.202L1572.63 202.306M1572.63 202.306H350.01M1572.63 202.306H1708.47L1801.05 114.202M1572.63 202.306L1512.08 272.827M350.01 202.306L273.244 114.202M350.01 202.306L411.454 272.827L461.759 330.538L503.699 378.662L539.196 419.382M350.01 202.306H214.171M273.244 114.202L174.602 0.999817M350.569 330.538H1573.7M350.569 330.538L401.747 378.662L445.073 419.382H539.196M350.569 330.538L289.17 272.827L214.171 202.306M1512.08 272.827L1462.51 330.538L1421.2 378.662L1386.24 419.382M1386.24 419.382H539.196M1386.24 419.382H1480.36L1523.15 378.662M1386.24 419.382L1356.27 454.292L1330.28 484.572L1307.53 511.077L1287.46 534.473L1269.61 555.241L1253.64 573.825L1239.26 590.556H1178.04L1167.95 605.697L1158.78 619.468L1150.39 632.055L1142.72 643.567H785.599L777.77 632.055L769.226 619.468L759.876 605.697L749.587 590.556H688.367L673.783 573.825L657.566 555.241L639.448 534.473L619.071 511.077L595.988 484.572L569.616 454.292L539.196 419.382M214.171 202.306L120.473 114.202M1523.15 378.662H401.769M1523.15 378.662L1573.73 330.538L1634.39 272.827L1708.49 202.306M1570.95 0.999817L1495.51 114.202H426.038L349.16 0.999817M482.226 454.329H1443.66M514.413 484.609H1411.85M1384 511.114H542.596M890.75 654.266L887.618 643.641L884.218 632.129L880.505 619.542L876.457 605.771L871.983 590.63L867.04 573.898L861.56 555.315L855.431 534.547L848.542 511.152L840.735 484.647L831.811 454.366L821.522 419.457L809.51 378.736L795.329 330.612L778.307 272.901L757.527 202.38L731.558 114.276L698.186 1.073M567.402 534.547H1359.38M939.668 654.303L938.572 643.678L937.386 632.166L936.089 619.579L934.68 605.808L933.136 590.667L931.414 573.935L929.513 555.352L927.388 534.585L924.995 511.189L922.288 484.684L919.179 454.403L915.6 419.494L911.417 378.773L906.497 330.649L900.569 272.938L893.344 202.417L884.308 114.313L872.699 1.11005M1337.52 555.352H589.501M1337.52 555.352L1359.35 534.585L1383.91 511.189L1411.76 484.684L1443.57 454.403L1480.27 419.494M1337.52 555.352L1317.97 573.935L1300.37 590.667H1239.15L1226.15 605.808L1214.32 619.579L1203.52 632.166H724.423L713.463 619.579L701.452 605.808L688.255 590.667H627.034L609.23 573.935L589.457 555.352L567.357 534.585L542.484 511.189L514.301 484.684L482.114 454.403L444.983 419.494M1318 573.935H609.297M1256.8 632.166L1244.67 643.678L1233.53 654.303H1135.59M1256.8 632.166L1270.02 619.579L1284.49 605.808L1300.41 590.667M1256.8 632.166H1203.56L1193.65 643.678H1142.63L1135.56 654.303H1086.58M1284.44 605.845H643.161M643.161 605.845L627.057 590.704M643.161 605.845L657.812 619.616M1269.97 619.616H657.812M657.812 619.616L671.188 632.202M841.653 654.34H743.704M743.704 654.34L734.466 643.715L724.423 632.202H671.188M743.704 654.34H694.719L683.446 643.715M671.188 632.202L683.446 643.715M792.69 654.34L785.487 643.715H683.446M1184.5 654.34L1193.61 643.715H1244.63M1221.75 1.11005L1189.83 114.313L1164.98 202.417L1145.09 272.938L1128.81 330.649L1115.23 378.773L1103.76 419.494L1093.92 454.403L1085.37 484.684L1077.9 511.189L1071.3 534.585L1065.44 555.352L1060.21 573.935L1055.49 590.667L1051.22 605.808L1047.32 619.579L1043.77 632.166L1040.52 643.678L1037.53 654.303M988.541 654.303L989.503 643.678L990.532 632.166L991.673 619.579L992.903 605.808L994.268 590.667L995.766 573.935L997.444 555.352L999.3 534.585L1001.4 511.189L1003.77 484.684L1006.48 454.403L1009.61 419.494L1013.26 378.773L1017.57 330.649L1022.76 272.938L1029.09 202.417L1036.99 114.313L1047.14 1.11005" stroke="url(#paint3_linear_2760_2283)" stroke-opacity="0.1" stroke-linecap="round" stroke-linejoin="round"/>
<path d="M1396.37 0.999817H523.651M1396.37 0.999817H1920M1396.37 0.999817L1342.69 114.202L1300.91 202.306L1267.47 272.827L1240.09 330.538L1217.27 378.662L1197.97 419.382L1181.42 454.292L1167.06 484.572L1154.49 511.077L1143.39 534.473L1133.53 555.241L1124.72 573.825L1116.78 590.556L1109.6 605.697L1103.06 619.468L1097.09 632.055L1091.63 643.567L1086.6 654.192H841.72L836.553 643.567L830.938 632.055L824.81 619.468L818.099 605.697L810.718 590.556L802.576 573.825L793.517 555.241L783.407 534.473L772.022 511.077L759.116 484.572L744.375 454.292L727.376 419.382L707.536 378.662M707.536 378.662L684.094 330.538M707.536 378.662H605.606M684.094 330.538L655.978 272.827L621.643 202.306L578.742 114.202L523.628 0.999817H0M684.094 330.538H572.927M1919.98 0.999817L1801.03 114.202H1495.46L1436.75 202.306M1436.75 202.306L1389.75 272.827M1436.75 202.306H1572.63M1389.75 272.827L1351.28 330.538L1319.2 378.662L1292.07 419.382L1268.81 454.292L1248.63 484.572L1230.99 511.077L1215.39 534.473L1201.55 555.241L1189.16 573.825L1178 590.556H749.52L738.157 573.825L725.519 555.241L711.405 534.473L695.524 511.077L677.541 484.572L656.985 454.292L633.275 419.382L605.606 378.662M1389.75 272.827H1512.08M605.606 378.662L572.927 330.538M572.927 330.538L533.716 272.827L485.827 202.306M485.827 202.306L425.993 114.202M485.827 202.306H350.01M425.993 114.202H120.428L0.0223896 0.999817M425.993 114.202H273.244M1634.34 272.827H289.148M1745.47 0.999817L1648.28 114.202L1572.63 202.306M1572.63 202.306H350.01M1572.63 202.306H1708.47L1801.05 114.202M1572.63 202.306L1512.08 272.827M350.01 202.306L273.244 114.202M350.01 202.306L411.454 272.827L461.759 330.538L503.699 378.662L539.196 419.382M350.01 202.306H214.171M273.244 114.202L174.602 0.999817M350.569 330.538H1573.7M350.569 330.538L401.747 378.662L445.073 419.382H539.196M350.569 330.538L289.17 272.827L214.171 202.306M1512.08 272.827L1462.51 330.538L1421.2 378.662L1386.24 419.382M1386.24 419.382H539.196M1386.24 419.382H1480.36L1523.15 378.662M1386.24 419.382L1356.27 454.292L1330.28 484.572L1307.53 511.077L1287.46 534.473L1269.61 555.241L1253.64 573.825L1239.26 590.556H1178.04L1167.95 605.697L1158.78 619.468L1150.39 632.055L1142.72 643.567H785.599L777.77 632.055L769.226 619.468L759.876 605.697L749.587 590.556H688.367L673.783 573.825L657.566 555.241L639.448 534.473L619.071 511.077L595.988 484.572L569.616 454.292L539.196 419.382M214.171 202.306L120.473 114.202M1523.15 378.662H401.769M1523.15 378.662L1573.73 330.538L1634.39 272.827L1708.49 202.306M1570.95 0.999817L1495.51 114.202H426.038L349.16 0.999817M482.226 454.329H1443.66M514.413 484.609H1411.85M1384 511.114H542.596M890.75 654.266L887.618 643.641L884.218 632.129L880.505 619.542L876.457 605.771L871.983 590.63L867.04 573.898L861.56 555.315L855.431 534.547L848.542 511.152L840.735 484.647L831.811 454.366L821.522 419.457L809.51 378.736L795.329 330.612L778.307 272.901L757.527 202.38L731.558 114.276L698.186 1.073M567.402 534.547H1359.38M939.668 654.303L938.572 643.678L937.386 632.166L936.089 619.579L934.68 605.808L933.136 590.667L931.414 573.935L929.513 555.352L927.388 534.585L924.995 511.189L922.288 484.684L919.179 454.403L915.6 419.494L911.417 378.773L906.497 330.649L900.569 272.938L893.344 202.417L884.308 114.313L872.699 1.11005M1337.52 555.352H589.501M1337.52 555.352L1359.35 534.585L1383.91 511.189L1411.76 484.684L1443.57 454.403L1480.27 419.494M1337.52 555.352L1317.97 573.935L1300.37 590.667H1239.15L1226.15 605.808L1214.32 619.579L1203.52 632.166H724.423L713.463 619.579L701.452 605.808L688.255 590.667H627.034L609.23 573.935L589.457 555.352L567.357 534.585L542.484 511.189L514.301 484.684L482.114 454.403L444.983 419.494M1318 573.935H609.297M1256.8 632.166L1244.67 643.678L1233.53 654.303H1135.59M1256.8 632.166L1270.02 619.579L1284.49 605.808L1300.41 590.667M1256.8 632.166H1203.56L1193.65 643.678H1142.63L1135.56 654.303H1086.58M1284.44 605.845H643.161M643.161 605.845L627.057 590.704M643.161 605.845L657.812 619.616M1269.97 619.616H657.812M657.812 619.616L671.188 632.202M841.653 654.34H743.704M743.704 654.34L734.466 643.715L724.423 632.202H671.188M743.704 654.34H694.719L683.446 643.715M671.188 632.202L683.446 643.715M792.69 654.34L785.487 643.715H683.446M1184.5 654.34L1193.61 643.715H1244.63M1221.75 1.11005L1189.83 114.313L1164.98 202.417L1145.09 272.938L1128.81 330.649L1115.23 378.773L1103.76 419.494L1093.92 454.403L1085.37 484.684L1077.9 511.189L1071.3 534.585L1065.44 555.352L1060.21 573.935L1055.49 590.667L1051.22 605.808L1047.32 619.579L1043.77 632.166L1040.52 643.678L1037.53 654.303M988.541 654.303L989.503 643.678L990.532 632.166L991.673 619.579L992.903 605.808L994.268 590.667L995.766 573.935L997.444 555.352L999.3 534.585L1001.4 511.189L1003.77 484.684L1006.48 454.403L1009.61 419.494L1013.26 378.773L1017.57 330.649L1022.76 272.938L1029.09 202.417L1036.99 114.313L1047.14 1.11005" stroke="url(#paint4_linear_2760_2283)" stroke-linecap="round" stroke-linejoin="round"/>
<defs>
<linearGradient id="paint0_linear_2760_2283" x1="960" y1="654.34" x2="960" y2="112.647" gradientUnits="userSpaceOnUse">
<stop stop-color="#00D066" stop-opacity="0.3"/>
<stop offset="1" stop-color="#6B6A6D" stop-opacity="0"/>
</linearGradient>
<linearGradient id="paint1_linear_2760_2283" x1="960" y1="654.34" x2="960" y2="203.618" gradientUnits="userSpaceOnUse">
<stop stop-color="#00D066" stop-opacity="0.3"/>
<stop offset="1" stop-color="#6B6A6D" stop-opacity="0"/>
</linearGradient>
<linearGradient id="paint2_linear_2760_2283" x1="960" y1="654.34" x2="960" y2="332.632" gradientUnits="userSpaceOnUse">
<stop stop-color="#00D066" stop-opacity="0.3"/>
<stop offset="1" stop-color="#6B6A6D" stop-opacity="0"/>
</linearGradient>
<linearGradient id="paint3_linear_2760_2283" x1="1920" y1="0.999474" x2="-5.86369e-05" y2="0.999647" gradientUnits="userSpaceOnUse">
<stop stop-color="#6B6A6D" stop-opacity="0"/>
<stop offset="0.497745" stop-color="#6B6A6D"/>
<stop offset="1" stop-color="#6B6A6D" stop-opacity="0"/>
</linearGradient>
<linearGradient id="paint4_linear_2760_2283" x1="960" y1="654.34" x2="960" y2="0.999817" gradientUnits="userSpaceOnUse">
<stop stop-color="#151516"/>
<stop offset="0.736666" stop-color="#151516" stop-opacity="0"/>
</linearGradient>
</defs>
</svg>
