<svg width="30" height="30" viewBox="0 0 30 30" fill="none" xmlns="http://www.w3.org/2000/svg">
<path d="M28.5 28.5H3.9C3.05992 28.5 2.63988 28.5 2.31901 28.3365C2.03677 28.1927 1.8073 27.9632 1.66349 27.681C1.5 27.3601 1.5 26.9401 1.5 26.1V1.5M27 9L21.1217 15.274C20.8989 15.5118 20.7875 15.6306 20.6531 15.6921C20.5345 15.7463 20.4038 15.7687 20.2739 15.757C20.1268 15.7437 19.9822 15.6687 19.693 15.5185L14.807 12.9815C14.5178 12.8313 14.3732 12.7563 14.2261 12.743C14.0962 12.7313 13.9655 12.7537 13.8469 12.8079C13.7125 12.8694 13.6011 12.9882 13.3783 13.226L7.5 19.5" stroke="#00D066" stroke-width="3" stroke-linecap="round" stroke-linejoin="round"/>
</svg>
