<svg width="70" height="40" viewBox="0 0 70 40" fill="none" xmlns="http://www.w3.org/2000/svg">
<path d="M19.1055 6.17523V0H38.3893L44.6712 6.39577V17.1289H47.3008V6.39577L53.5826 0H64.4663V6.17523L53.5826 17.1289H47.3008V26.3918H44.6712V17.1289H29.9161L19.1055 6.17523Z" fill="#00D066"/>
<path d="M7.57509 40L0 27.3505C5.56425 26.0234 9.2508 23.2954 10.3985 22.0973C14.1999 18.5582 18.823 17.9038 20.6593 18.019C27.3071 17.9488 34.0104 20.2353 39.0405 22.6512C43.4456 24.7669 48.4675 25.7446 53.1694 24.4128L59.6366 22.5811C64.4296 21.7516 67.5561 23.2493 68.5202 24.1018C70.8891 25.9266 69.5072 27.4888 68.5202 28.0418L43.2469 38.2028C40.9881 39.2534 37.7607 39.1474 36.4293 38.9631L33.7436 38.2028C26.5266 35.7144 21.0496 36.0139 19.2132 36.4056L17.3539 36.9586L7.57509 40Z" fill="#00D066"/>
</svg>
