<svg width="30" height="30" viewBox="0 0 30 30" fill="none" xmlns="http://www.w3.org/2000/svg">
<path d="M4.5 10.4995V22.4995M11.25 10.4995V22.4995M18.75 10.4995V22.4995M25.5 10.4995V22.4995M1.5 24.8995L1.5 26.0995C1.5 26.9396 1.5 27.3597 1.66349 27.6805C1.8073 27.9628 2.03677 28.1922 2.31901 28.3361C2.63988 28.4995 3.05992 28.4995 3.9 28.4995H26.1C26.9401 28.4995 27.3601 28.4995 27.681 28.3361C27.9632 28.1922 28.1927 27.9628 28.3365 27.6805C28.5 27.3597 28.5 26.9396 28.5 26.0995V24.8995C28.5 24.0595 28.5 23.6394 28.3365 23.3186C28.1927 23.0363 27.9632 22.8068 27.681 22.663C27.3601 22.4995 26.9401 22.4995 26.1 22.4995H3.9C3.05992 22.4995 2.63988 22.4995 2.31901 22.663C2.03677 22.8068 1.8073 23.0363 1.66349 23.3186C1.5 23.6394 1.5 24.0595 1.5 24.8995ZM14.4794 1.61524L3.37937 4.0819C2.70878 4.23092 2.37348 4.30543 2.1232 4.48575C1.90244 4.64479 1.72909 4.86088 1.62172 5.11089C1.5 5.39433 1.5 5.7378 1.5 6.42475L1.5 8.09954C1.5 8.93962 1.5 9.35966 1.66349 9.68053C1.8073 9.96277 2.03677 10.1922 2.31901 10.3361C2.63988 10.4995 3.05992 10.4995 3.9 10.4995H26.1C26.9401 10.4995 27.3601 10.4995 27.681 10.3361C27.9632 10.1922 28.1927 9.96277 28.3365 9.68053C28.5 9.35966 28.5 8.93962 28.5 8.09954V6.42475C28.5 5.73781 28.5 5.39433 28.3783 5.11089C28.2709 4.86089 28.0976 4.64479 27.8768 4.48575C27.6265 4.30544 27.2912 4.23093 26.6206 4.08191L15.5206 1.61524C15.3263 1.57206 15.2292 1.55048 15.131 1.54187C15.0438 1.53422 14.9562 1.53422 14.869 1.54187C14.7708 1.55048 14.6737 1.57206 14.4794 1.61524Z" stroke="#00D066" stroke-width="3" stroke-linecap="round" stroke-linejoin="round"/>
</svg>
