<svg width="18" height="18" viewBox="0 0 18 18" fill="none" xmlns="http://www.w3.org/2000/svg">
<path d="M8.99935 0.666992V1.50033M1.49935 9.00033H0.666016M3.58268 3.58366L3.0826 3.08358M14.416 3.58366L14.9162 3.08358M17.3327 9.00033H16.4993M7.33268 10.2503H10.666M8.99935 10.2503V14.417M11.916 13.062C13.1777 12.1543 13.9993 10.6733 13.9993 9.00033C13.9993 6.2389 11.7608 4.00033 8.99935 4.00033C6.23793 4.00033 3.99935 6.2389 3.99935 9.00033C3.99935 10.6733 4.82096 12.1543 6.08268 13.062V14.667C6.08268 15.6004 6.08268 16.0671 6.26434 16.4236C6.42413 16.7372 6.6791 16.9922 6.9927 17.152C7.34922 17.3337 7.81593 17.3337 8.74935 17.3337H9.24935C10.1828 17.3337 10.6495 17.3337 11.006 17.152C11.3196 16.9922 11.5746 16.7372 11.7344 16.4236C11.916 16.0671 11.916 15.6004 11.916 14.667V13.062Z" stroke="#B3B3B3" stroke-width="1.2" stroke-linecap="round" stroke-linejoin="round"/>
</svg>
