<svg width="18" height="18" viewBox="0 0 18 18" fill="none" xmlns="http://www.w3.org/2000/svg">
<path d="M13.9994 12.1974C15.2126 12.8069 16.2528 13.785 17.0121 15.008C17.1624 15.2502 17.2376 15.3713 17.2636 15.539C17.3164 15.8798 17.0834 16.2988 16.766 16.4336C16.6098 16.5 16.4341 16.5 16.0827 16.5M12.3327 8.6102C13.5675 7.99657 14.416 6.72238 14.416 5.25C14.416 3.77762 13.5675 2.50343 12.3327 1.8898M10.666 5.25C10.666 7.32107 8.98711 9 6.91604 9C4.84497 9 3.16604 7.32107 3.16604 5.25C3.16604 3.17893 4.84497 1.5 6.91604 1.5C8.98711 1.5 10.666 3.17893 10.666 5.25ZM1.13207 14.782C2.46066 12.7871 4.55719 11.5 6.91604 11.5C9.2749 11.5 11.3714 12.7871 12.7 14.782C12.9911 15.219 13.1366 15.4375 13.1198 15.7166C13.1068 15.9339 12.9643 16.2 12.7907 16.3313C12.5676 16.5 12.2609 16.5 11.6474 16.5H2.18467C1.57118 16.5 1.26444 16.5 1.04141 16.3313C0.867749 16.2 0.725283 15.9339 0.712237 15.7166C0.695483 15.4375 0.841011 15.219 1.13207 14.782Z" stroke="#B3B3B3" stroke-width="1.2" stroke-linecap="round" stroke-linejoin="round"/>
</svg>
