<svg width="29" height="34" viewBox="0 0 29 34" fill="none" xmlns="http://www.w3.org/2000/svg">
<path d="M18.3733 2H9.73995C9.47073 2 9.33613 2 9.21728 2.04099C9.11219 2.07724 9.01647 2.1364 8.93705 2.21419C8.84724 2.30215 8.78704 2.42255 8.66664 2.66334L2.36664 15.2633C2.07912 15.8384 1.93536 16.1259 1.96989 16.3596C2.00004 16.5637 2.11293 16.7464 2.28198 16.8646C2.47558 17 2.79704 17 3.43995 17H12.7483L8.24831 32L26.538 13.033C27.155 12.3931 27.4635 12.0731 27.4816 11.7993C27.4972 11.5617 27.3991 11.3307 27.2172 11.177C27.0076 11 26.5631 11 25.6741 11H14.9983L18.3733 2Z" stroke="#00D066" stroke-width="3" stroke-linecap="round" stroke-linejoin="round"/>
</svg>
