<svg width="34" height="33" viewBox="0 0 34 33" fill="none" xmlns="http://www.w3.org/2000/svg">
<path d="M8 8L14.75 14.75M8 8H3.5L2 3.5L3.5 2L8 3.5V8ZM27.8885 3.11152L23.9471 7.05294C23.353 7.64697 23.056 7.94398 22.9447 8.28647C22.8468 8.58774 22.8468 8.91226 22.9447 9.21353C23.056 9.55602 23.353 9.85303 23.9471 10.4471L24.3029 10.8029C24.897 11.397 25.194 11.694 25.5365 11.8053C25.8377 11.9032 26.1623 11.9032 26.4635 11.8053C26.806 11.694 27.103 11.397 27.6971 10.8029L31.3839 7.11608C31.781 8.08233 32 9.14059 32 10.25C32 14.8063 28.3063 18.5 23.75 18.5C23.2007 18.5 22.6639 18.4463 22.1446 18.3439C21.4154 18.2001 21.0508 18.1282 20.8298 18.1502C20.5948 18.1736 20.479 18.2089 20.2708 18.3203C20.0749 18.4251 19.8785 18.6215 19.4855 19.0145L8.75 29.75C7.50736 30.9926 5.49264 30.9926 4.25 29.75C3.00736 28.5073 3.00736 26.4926 4.25 25.25L14.9855 14.5145C15.3785 14.1215 15.5749 13.9251 15.6797 13.7292C15.7911 13.521 15.8264 13.4052 15.8498 13.1702C15.8718 12.9492 15.7999 12.5846 15.6561 11.8554C15.5537 11.3361 15.5 10.7993 15.5 10.25C15.5 5.69365 19.1937 2 23.75 2C25.2583 2 26.672 2.40473 27.8885 3.11152ZM17.0001 21.4999L25.25 29.7498C26.4926 30.9925 28.5073 30.9925 29.75 29.7498C30.9926 28.5072 30.9926 26.4925 29.75 25.2498L22.963 18.4629C22.4825 18.4175 22.0141 18.3308 21.5612 18.2065C20.9776 18.0463 20.3374 18.1626 19.9095 18.5905L17.0001 21.4999Z" stroke="#00D066" stroke-width="3" stroke-linecap="round" stroke-linejoin="round"/>
</svg>
