<svg width="18" height="18" viewBox="0 0 18 18" fill="none" xmlns="http://www.w3.org/2000/svg">
<path d="M11.954 7.27151C12.2656 6.71785 12.5254 6.21825 12.6857 5.838C13.4638 3.99155 12.6944 1.86763 10.8135 1.00126C8.93257 0.134891 7.04385 1.03324 6.21494 2.76776C4.62982 1.68008 2.51533 1.83982 1.34925 3.53719C0.183176 5.23456 0.549144 7.45202 2.14626 8.66203C2.8711 9.21119 4.30465 10.0205 5.65431 10.7407M12.5803 8.79195C12.2286 6.90199 10.6205 5.51977 8.59571 5.89545C6.57095 6.27113 5.26175 8.09789 5.53547 10.0828C5.75539 11.6776 6.96928 15.4193 7.43802 16.8286C7.50198 17.021 7.53397 17.1171 7.59729 17.1842C7.65245 17.2426 7.72579 17.285 7.80397 17.3035C7.8937 17.3248 7.99297 17.3044 8.19151 17.2637C9.64645 16.9649 13.4938 16.1453 14.9848 15.5384C16.8407 14.783 17.7985 12.7371 17.0811 10.7945C16.3637 8.85188 14.393 8.15158 12.5803 8.79195Z" stroke="#B3B3B3" stroke-width="1.2" stroke-linecap="round" stroke-linejoin="round"/>
</svg>
